<svg xmlns="http://www.w3.org/2000/svg" width="32" height="32" viewBox="0 0 32 32"><path fill="#f6cc90" d="M3.119 30.728c0-.02 3.718-3.176 12.486-3.176 8.516 0 12.486 3.156 12.486 3.176H3.12z"/><path fill="#f0c17f" d="M15.605 27.552q-.816 0-1.574.035c7.461.345 10.953 3.122 10.953 3.141h3.106c0-.02-3.969-3.176-12.486-3.176z"/><path fill="#c5e866" d="M21.274 5.575c-1.016 2.947-3.753 3.454-3.753 3.454s-1.814-2.172-.825-5.042c1.042-3.023 3.78-3.53 3.78-3.53s1.827 2.134.798 5.119z"/><path fill="#b2d94b" d="M20.477.457s-.724.134-1.568.675a5.45 5.45 0 0 1 .356 4.443c-.492 1.426-1.386 2.28-2.178 2.782.233.429.435.671.435.671s2.738-.507 3.753-3.454c1.029-2.985-.798-5.119-.798-5.119z"/><path fill="#9cc042" d="M18.545 19.429c-1.669.237-2.898-.104-2.898-.104s-1.063-4.264 2.258-7.595c3.498-3.509 7.659-2.354 7.659-2.354s.913 3.48-1.506 6.714z"/><path fill="#85aa18" d="M25.565 9.376s-1.116-.309-2.678-.121c.422.053.668.121.668.121s.913 3.48-1.506 6.714l-5.514 3.338-.181.023c.52.064 1.291.104 2.191-.023l5.514-3.338c2.419-3.234 1.506-6.714 1.506-6.714"/><path fill="#c5e866" d="M11.668 17.193c2.962 2.335 2.457 5.681 2.457 5.681s-3.198 1.224-6.084-1.05c-3.039-2.395-2.534-5.742-2.534-5.742s3.16-1.254 6.161 1.111"/><path fill="#9cc042" d="M8.271 12.377c2.982 3.8 7.251 3.147 7.251 3.147s1.557-4.108-1.348-7.809C11.114 3.816 6.845 4.47 6.845 4.47S5.249 8.529 8.27 12.378z"/><path fill="#c5e866" d="M23.287 21.151c-2.559 1.769-5.064.55-5.064.55s-.178-2.828 2.315-4.551c2.626-1.815 5.13-.596 5.13-.596s.211 2.805-2.381 4.597"/><path fill="#b2d94b" d="M25.669 16.554s-1.305-.635-3.019-.306c.625.118 1.01.306 1.01.306s.211 2.805-2.381 4.597a5.3 5.3 0 0 1-2.021.864 5.25 5.25 0 0 0 4.03-.864c2.593-1.792 2.381-4.597 2.381-4.597"/><path fill="#060606" d="M28.166 30.212c-.903-.637-1.933-1.111-2.961-1.506-1.855-.714-4.941-1.56-9.215-1.609.069-.591.234-1.44.619-2.386q.575-1.409 1.549-2.539c.305.125 1.089.4 2.114.4.949 0 2.105-.236 3.275-1.045 2.776-1.919 2.587-4.882 2.577-5.007a.46.46 0 0 0-.256-.376 4.8 4.8 0 0 0-1.061-.334 8.7 8.7 0 0 0 1.113-2.587c.143-.572-.743-.793-.886-.222a7.9 7.9 0 0 1-1.251 2.693c-.989-.023-2.231.201-3.504 1.081a5.7 5.7 0 0 0-1.91 2.216 8 8 0 0 1-1.957.007c.928-1.252 3.347-4.286 6.071-5.871.509-.296.05-1.086-.459-.79-2.65 1.542-4.957 4.287-6.069 5.744-.064-1.422.182-3.93 2.276-6.03 1.364-1.369 2.988-2.162 4.826-2.357a7.7 7.7 0 0 1 2.122.064c.041.238.09.623.099 1.107.01.584.924.577.914-.016-.017-.948-.176-1.565-.182-1.59a.46.46 0 0 0-.32-.324c-.046-.013-1.141-.31-2.686-.153-1.422.144-3.517.717-5.419 2.625q-.238.239-.447.483c.256-.79.537-1.644.823-2.503a5.72 5.72 0 0 0 3.748-3.663c1.102-3.196-.802-5.469-.883-5.565a.46.46 0 0 0-.43-.152c-.122.023-3.012.593-4.128 3.831-.927 2.688.394 4.789.798 5.343-.266.8-.526 1.593-.767 2.333a8.6 8.6 0 0 0-1.762-4.081c-1.664-2.12-3.676-2.937-5.071-3.248-1.516-.339-2.638-.174-2.686-.166a.46.46 0 0 0-.356.284c-.013.033-.316.813-.419 2.01-.051.587.86.665.91.079a7.7 7.7 0 0 1 .274-1.494 7.7 7.7 0 0 1 2.114.188c1.802.412 3.321 1.392 4.515 2.912 1.131 1.441 1.691 3.112 1.666 4.968a8.6 8.6 0 0 1-.161 1.537c-1.807-3.365-4.366-5.951-4.478-6.064-.416-.417-1.063.228-.647.645.027.027 2.665 2.694 4.412 6.024a8 8 0 0 1-1.532-.186c-1.789-.396-3.284-1.347-4.445-2.826-.808-1.03-1.344-2.173-1.591-3.398-.117-.578-1.012-.397-.896.181a8.96 8.96 0 0 0 1.768 3.781c1.625 2.07 3.619 2.862 5.007 3.163.691.15 1.404.221 2.111.198v7.692a10 10 0 0 0-.443-.845 6.85 6.85 0 0 0-2.635-6.033c-3.171-2.499-6.473-1.232-6.612-1.176a.46.46 0 0 0-.283.356c-.022.147-.508 3.638 2.703 6.169a6.8 6.8 0 0 0 4.271 1.482c.792 0 1.442-.129 1.839-.234a8.8 8.8 0 0 1 1.125 3.669c-2.364.04-4.57.311-6.563.809-.572.143-.35 1.029.222.886 1.932-.483 4.076-.745 6.379-.783v1.05c0 .589.914.589.914 0V28.01c5.388.054 8.831 1.373 10.543 2.26H4.681a15 15 0 0 1 1.713-.77c.551-.21.226-1.064-.325-.854a15 15 0 0 0-2.427 1.164c-.973.593-.973.736-.973.917 0 .252.204.457.457.457h24.972c.694 0 .421-.729.076-.973zm-7.368-12.686c1.927-1.333 3.758-.893 4.416-.663a4.97 4.97 0 0 1-2.187 3.912 4.8 4.8 0 0 1-4.176.674q1.352-1.265 3.281-2.093c.541-.232.182-1.072-.36-.84a12.4 12.4 0 0 0-2.905 1.722 4.83 4.83 0 0 1 1.93-2.713zm-3.446 2.444q.308 0 .651-.024c-.15.522-.208.981-.229 1.303a10.1 10.1 0 0 0-1.832 2.705v-4.1c.32.055.809.116 1.41.116m-.224-15.834c.765-2.219 2.498-2.954 3.165-3.16a4.98 4.98 0 0 1 .549 4.451 4.8 4.8 0 0 1-2.507 2.837c.593-1.753 1.179-3.414 1.604-4.457.222-.546-.624-.891-.846-.345-.444 1.088-1.048 2.802-1.655 4.596-.415-.795-.898-2.219-.311-3.921zM8.323 21.465c-1.165-.918-1.917-2.087-2.235-3.473a6 6 0 0 1-.151-1.569 6.14 6.14 0 0 1 5.448 1.128c1.133.893 1.862 2.043 2.168 3.418q.066.3.098.568c-.304-.367-.614-.69-.912-.969-1.576-1.479-3.14-2.098-3.206-2.124-.549-.214-.881.637-.332.851.014.006 1.464.579 2.912 1.938q.694.651 1.224 1.379c-1.012.206-3.093.365-5.014-1.149z"/></svg>