<svg aria-hidden="true" style="position: absolute; width: 0; height: 0; overflow: hidden;" version="1.1" xmlns="http://www.w3.org/2000/svg" xmlns:xlink="http://www.w3.org/1999/xlink">
<defs>
<symbol id="icon-keyboard_arrow_down" viewBox="0 0 32 32">
<title>keyboard_arrow_down</title>
<path stroke-linejoin="miter" stroke-linecap="butt" stroke-miterlimit="4" stroke-width="1.3333" d="M9.449 12.031c0.134 0 0.237 0.041 0.341 0.145l6.208 6.244 6.243-6.244c0.104-0.103 0.192-0.133 0.299-0.129 0.126 0.005 0.234 0.048 0.349 0.163 0.104 0.104 0.145 0.207 0.145 0.341s-0.041 0.236-0.145 0.34l-6.559 6.559c-0.072 0.072-0.129 0.107-0.167 0.122-0.047 0.020-0.101 0.031-0.165 0.031-0.033 0-0.062-0.004-0.090-0.009l-0.077-0.022-0.070-0.040c-0.028-0.019-0.059-0.046-0.095-0.082l-6.592-6.591c-0.098-0.098-0.133-0.191-0.129-0.318 0.005-0.143 0.053-0.255 0.163-0.365 0.104-0.104 0.206-0.144 0.34-0.145z"></path>
</symbol>
<symbol id="icon-arrow_back" viewBox="0 0 32 32">
<title>arrow_back</title>
<path stroke-linejoin="miter" stroke-linecap="butt" stroke-miterlimit="4" stroke-width="1.3333" d="M16.010 6.249c0.114 0 0.212 0.035 0.322 0.145 0.11 0.115 0.145 0.217 0.145 0.332-0 0.116-0.035 0.214-0.145 0.324l-8.482 8.482h17.88c0.162 0 0.262 0.047 0.348 0.132 0.083 0.082 0.129 0.177 0.129 0.337s-0.046 0.255-0.129 0.337c-0.085 0.084-0.186 0.131-0.348 0.132h-17.88l8.474 8.473c0.11 0.11 0.147 0.212 0.148 0.335v0.001c0.001 0.089-0.019 0.167-0.074 0.246l-0.069 0.082c-0.107 0.108-0.204 0.143-0.323 0.142-0.126-0.001-0.23-0.041-0.341-0.151l-9.264-9.264c-0.071-0.072-0.105-0.128-0.121-0.167v-0.001c-0.020-0.048-0.031-0.102-0.031-0.165s0.012-0.116 0.031-0.163v-0.001c0.016-0.038 0.050-0.095 0.121-0.167l9.267-9.267c0.121-0.116 0.227-0.152 0.342-0.152z"></path>
</symbol>
<symbol id="icon-arrow_forward" viewBox="0 0 32 32">
<title>arrow_forward</title>
<path stroke-linejoin="miter" stroke-linecap="butt" stroke-miterlimit="4" stroke-width="1.3333" d="M15.993 6.253c0.095 0.001 0.177 0.023 0.259 0.081l0.082 0.070 9.264 9.264c0.071 0.072 0.105 0.128 0.121 0.167v0.001c0.020 0.048 0.031 0.102 0.031 0.165s-0.012 0.116-0.031 0.163v0.001c-0.016 0.038-0.050 0.094-0.121 0.167l-9.272 9.264c-0.122 0.12-0.227 0.155-0.337 0.155-0.108-0-0.204-0.033-0.315-0.147l-0.007-0.007-0.069-0.081c-0.056-0.079-0.075-0.157-0.075-0.243s0.020-0.163 0.075-0.242l0.069-0.081 8.482-8.482h-17.88c-0.163-0-0.259-0.047-0.34-0.128h-0.001c-0.081-0.081-0.128-0.179-0.128-0.341s0.046-0.26 0.128-0.341h0.001c0.081-0.081 0.177-0.127 0.34-0.128h17.88l-8.474-8.474c-0.082-0.082-0.124-0.16-0.141-0.246l-0.008-0.090c-0.001-0.12 0.034-0.218 0.141-0.326l0.001-0.001c0.107-0.107 0.205-0.143 0.324-0.142z"></path>
</symbol>
<symbol id="icon-bookmark" viewBox="0 0 32 32">
<title>bookmark</title>
<path d="M16 24.223l-6.358 2.72c-0.757 0.326-1.475 0.265-2.155-0.184s-1.020-1.083-1.020-1.905v-18.95c0-0.616 0.225-1.149 0.676-1.601s0.982-0.678 1.595-0.678h14.523c0.616 0 1.149 0.226 1.601 0.678s0.678 0.985 0.678 1.601v18.95c0 0.821-0.341 1.456-1.024 1.905s-1.402 0.51-2.159 0.184l-6.358-2.72zM16 21.794l7.262 3.061v-18.95h-14.523v18.95l7.262-3.061zM16 5.905v0z"></path>
</symbol>
<symbol id="icon-chevron_left" viewBox="0 0 32 32">
<title>chevron_left</title>
<path stroke-linejoin="miter" stroke-linecap="butt" stroke-miterlimit="4" stroke-width="1.3333" d="M18.716 8.865c0.134 0 0.237 0.041 0.341 0.145s0.145 0.207 0.145 0.341-0.040 0.237-0.145 0.341l-6.276 6.276 6.276 6.275c0.104 0.104 0.133 0.193 0.129 0.301-0.005 0.125-0.047 0.233-0.161 0.348-0.104 0.104-0.207 0.146-0.341 0.146s-0.237-0.042-0.341-0.146l-6.592-6.591c-0.036-0.036-0.063-0.069-0.082-0.096l-0.039-0.070c-0.020-0.047-0.031-0.101-0.031-0.165 0-0.032 0.002-0.063 0.008-0.090l0.023-0.077c0.016-0.038 0.049-0.094 0.121-0.167l6.626-6.625c0.104-0.104 0.206-0.144 0.34-0.145z"></path>
</symbol>
<symbol id="icon-chevron_right" viewBox="0 0 32 32">
<title>chevron_right</title>
<path stroke-linejoin="miter" stroke-linecap="butt" stroke-miterlimit="4" stroke-width="1.3333" d="M12.516 8.897c0.134 0 0.237 0.041 0.341 0.145l6.592 6.592c0.072 0.072 0.105 0.128 0.121 0.165v0.001c0.020 0.047 0.031 0.1 0.031 0.165s-0.012 0.118-0.031 0.165v0.001c-0.016 0.037-0.049 0.093-0.121 0.165l-6.625 6.625c-0.104 0.104-0.193 0.133-0.301 0.129-0.125-0.005-0.233-0.047-0.348-0.161-0.104-0.104-0.146-0.207-0.146-0.341s0.042-0.237 0.146-0.341l6.242-6.242-6.276-6.276c-0.104-0.104-0.133-0.192-0.129-0.299 0.005-0.126 0.048-0.234 0.163-0.349 0.104-0.104 0.206-0.144 0.34-0.145z"></path>
</symbol>
<symbol id="icon-close" viewBox="0 0 32 32">
<title>close</title>
<path stroke-linejoin="miter" stroke-linecap="butt" stroke-miterlimit="4" stroke-width="1.3333" d="M23.466 7.9c0.219 0 0.355 0.065 0.462 0.172s0.172 0.242 0.172 0.461c0 0.219-0.065 0.355-0.172 0.462l-7.005 7.005 7.005 7.004c0.107 0.107 0.172 0.243 0.172 0.462s-0.065 0.355-0.172 0.462-0.243 0.172-0.462 0.172c-0.219 0-0.355-0.065-0.462-0.172l-7.004-7.005-7.005 7.005c-0.107 0.107-0.243 0.172-0.462 0.172s-0.354-0.065-0.461-0.172c-0.107-0.107-0.172-0.243-0.172-0.462s0.065-0.355 0.172-0.462l7.004-7.004-7.004-7.005c-0.107-0.107-0.172-0.243-0.172-0.462s0.065-0.354 0.172-0.461 0.242-0.172 0.461-0.172c0.219 0 0.355 0.065 0.462 0.172l7.005 7.004 7.004-7.004c0.107-0.107 0.243-0.172 0.462-0.172z"></path>
</symbol>
<symbol id="icon-communication" viewBox="0 0 32 32">
<title>communication</title>
<path d="M1.15 21.271v-0.569c0-1.243 0.618-2.059 1.853-2.45s2.329-0.586 3.283-0.586c0.954 0 2.048 0.195 3.283 0.584s1.853 1.207 1.853 2.451v0.569h-10.271zM6.284 15.881c-0.725 0-1.345-0.259-1.861-0.776s-0.773-1.14-0.773-1.866 0.258-1.348 0.775-1.863c0.516-0.515 1.137-0.773 1.862-0.773s1.345 0.259 1.861 0.776c0.516 0.517 0.773 1.139 0.773 1.864s-0.258 1.346-0.775 1.864c-0.516 0.517-1.137 0.776-1.862 0.776zM13.244 17.88c-0.255 0-0.466-0.080-0.632-0.24s-0.249-0.365-0.249-0.616c0-0.125 0.083-0.342 0.249-0.65 0.172-0.244 0.309-0.5 0.409-0.767s0.15-0.545 0.15-0.834c0-0.289-0.050-0.575-0.15-0.858s-0.237-0.532-0.411-0.749c-0.072-0.097-0.131-0.198-0.177-0.303s-0.069-0.216-0.069-0.333c0-0.254 0.083-0.464 0.25-0.629s0.377-0.248 0.631-0.248c0.112 0 0.228 0.018 0.346 0.054s0.211 0.098 0.278 0.187c0.388 0.405 0.673 0.856 0.853 1.353s0.271 1.006 0.271 1.526c0 0.516-0.097 1.035-0.291 1.556s-0.48 0.968-0.856 1.34c-0.089 0.089-0.182 0.146-0.278 0.171s-0.204 0.038-0.322 0.038zM15.783 20.415c-0.26 0-0.471-0.084-0.633-0.251s-0.243-0.379-0.243-0.635c0-0.118 0.022-0.228 0.065-0.33s0.101-0.201 0.173-0.296c0.546-0.639 0.951-1.307 1.215-2.005s0.395-1.405 0.395-2.125-0.132-1.434-0.395-2.144c-0.264-0.71-0.669-1.376-1.216-1.998-0.071-0.095-0.129-0.192-0.172-0.291s-0.065-0.211-0.065-0.335c0-0.258 0.083-0.469 0.25-0.633s0.377-0.246 0.632-0.246c0.13 0 0.252 0.030 0.363 0.091s0.214 0.141 0.308 0.242c0.695 0.8 1.215 1.649 1.558 2.547s0.516 1.819 0.516 2.764c0 0.945-0.172 1.866-0.516 2.764s-0.863 1.747-1.558 2.547c-0.087 0.111-0.187 0.194-0.299 0.25s-0.238 0.083-0.378 0.083zM20.579 21.271v-0.569c0-1.244 0.617-2.061 1.853-2.451s2.329-0.584 3.283-0.584c0.954 0 2.048 0.195 3.283 0.586s1.853 1.207 1.853 2.45v0.569h-10.271zM25.713 15.881c-0.725 0-1.345-0.259-1.861-0.776s-0.773-1.14-0.773-1.866 0.258-1.348 0.775-1.863c0.516-0.515 1.137-0.773 1.862-0.773s1.345 0.259 1.861 0.776c0.516 0.517 0.773 1.139 0.773 1.864s-0.258 1.346-0.775 1.864c-0.516 0.517-1.137 0.776-1.862 0.776z"></path>
</symbol>
<symbol id="icon-edit" viewBox="0 0 32 32">
<title>edit</title>
<path d="M6.064 25.928h1.475l15.327-15.294-1.459-1.467-15.343 15.302v1.459zM4.936 28.199c-0.326 0-0.597-0.108-0.812-0.323s-0.323-0.486-0.323-0.812v-2.561c0-0.304 0.062-0.601 0.187-0.891s0.289-0.537 0.493-0.742l18.471-18.446c0.183-0.188 0.404-0.335 0.661-0.441s0.525-0.158 0.803-0.158c0.255 0 0.51 0.053 0.765 0.158s0.491 0.25 0.707 0.433l1.73 1.706c0.205 0.216 0.355 0.453 0.449 0.711s0.141 0.517 0.141 0.777c0 0.26-0.053 0.524-0.158 0.79s-0.25 0.494-0.433 0.682l-18.471 18.438c-0.21 0.204-0.458 0.369-0.746 0.493s-0.583 0.187-0.887 0.187h-2.577zM22.14 9.893l-0.733-0.725 1.459 1.467-0.725-0.741z"></path>
</symbol>
<symbol id="icon-Facebook" viewBox="0 0 32 32">
<title>Facebook</title>
<path d="M32 16.098c0-8.891-7.163-16.098-16-16.098s-16 7.207-16 16.098c0 8.035 5.851 14.695 13.5 15.902v-11.249h-4.063v-4.653h4.063v-3.547c0-4.035 2.389-6.263 6.043-6.263 1.751 0 3.582 0.314 3.582 0.314v3.962h-2.017c-1.988 0-2.608 1.241-2.608 2.514v3.020h4.437l-0.709 4.653h-3.728v11.249c7.649-1.208 13.5-7.867 13.5-15.902z"></path>
</symbol>
<symbol id="icon-Instagram" viewBox="0 0 32 32">
<title>Instagram</title>
<path d="M16.006 6.488c3.206 0 3.585 0.014 4.846 0.071 1.172 0.052 1.804 0.248 2.227 0.412 0.558 0.216 0.961 0.478 1.378 0.895 0.422 0.422 0.679 0.82 0.9 1.378 0.164 0.422 0.361 1.059 0.412 2.226 0.056 1.266 0.071 1.645 0.071 4.847s-0.014 3.585-0.071 4.847c-0.052 1.172-0.248 1.804-0.412 2.227-0.216 0.558-0.478 0.961-0.895 1.377-0.422 0.422-0.82 0.679-1.377 0.9-0.422 0.164-1.060 0.361-2.227 0.413-1.266 0.056-1.645 0.070-4.847 0.070s-3.585-0.014-4.847-0.070c-1.172-0.052-1.804-0.248-2.226-0.413-0.558-0.216-0.961-0.478-1.378-0.895-0.422-0.422-0.679-0.82-0.9-1.378-0.164-0.422-0.361-1.060-0.412-2.226-0.056-1.266-0.071-1.645-0.071-4.847s0.014-3.585 0.071-4.847c0.052-1.172 0.248-1.804 0.412-2.226 0.216-0.558 0.478-0.961 0.895-1.378 0.422-0.422 0.82-0.679 1.378-0.9 0.422-0.164 1.059-0.361 2.226-0.412 1.261-0.056 1.641-0.071 4.847-0.071h0.001zM16.006 4.328c-3.258 0-3.665 0.014-4.945 0.071-1.275 0.056-2.151 0.262-2.91 0.558-0.792 0.309-1.462 0.717-2.127 1.387-0.67 0.666-1.078 1.336-1.387 2.123-0.295 0.764-0.502 1.636-0.558 2.91-0.056 1.285-0.071 1.692-0.071 4.949s0.014 3.665 0.071 4.945c0.056 1.275 0.262 2.151 0.558 2.91 0.31 0.792 0.717 1.462 1.387 2.127 0.665 0.665 1.336 1.078 2.123 1.383 0.764 0.295 1.636 0.502 2.91 0.558 1.279 0.056 1.687 0.071 4.945 0.071s3.665-0.014 4.945-0.071c1.275-0.056 2.151-0.262 2.91-0.558 0.787-0.305 1.458-0.717 2.123-1.383s1.078-1.335 1.383-2.123c0.295-0.764 0.502-1.635 0.558-2.91 0.056-1.279 0.070-1.687 0.070-4.945s-0.014-3.665-0.070-4.945c-0.056-1.275-0.263-2.151-0.558-2.91-0.295-0.797-0.703-1.467-1.373-2.133-0.665-0.665-1.336-1.078-2.123-1.383-0.764-0.295-1.636-0.502-2.91-0.558-1.284-0.061-1.692-0.075-4.949-0.075l-0.001 0.001z"></path>
<path d="M16.006 10.163c-3.402 0-6.163 2.76-6.163 6.163s2.76 6.163 6.163 6.163 6.163-2.76 6.163-6.163c0-3.402-2.76-6.163-6.163-6.163zM16.006 20.324c-2.208 0-3.998-1.79-3.998-3.998s1.79-3.998 3.998-3.998 3.998 1.79 3.998 3.998c0 2.208-1.79 3.998-3.998 3.998z"></path>
<path d="M23.851 9.919c0 0.795-0.644 1.439-1.439 1.439s-1.439-0.644-1.439-1.439c0-0.795 0.644-1.439 1.439-1.439s1.439 0.644 1.439 1.439z"></path>
</symbol>
<symbol id="icon-keyboard_arrow_up" viewBox="0 0 32 32">
<title>keyboard_arrow_up</title>
<path stroke-linejoin="miter" stroke-linecap="butt" stroke-miterlimit="4" stroke-width="1.3333" d="M16 11.605c0.125 0 0.227 0.038 0.333 0.145l6.591 6.592c0.109 0.109 0.145 0.208 0.145 0.324s-0.035 0.215-0.145 0.324c-0.104 0.104-0.207 0.145-0.341 0.145s-0.236-0.041-0.34-0.145l-0.001-0.001-6.243-6.207-6.241 6.241c-0.104 0.104-0.192 0.133-0.299 0.129-0.126-0.005-0.234-0.047-0.349-0.161-0.104-0.104-0.145-0.207-0.145-0.341s0.040-0.237 0.145-0.341l6.559-6.559c0.107-0.107 0.207-0.144 0.332-0.145z"></path>
</symbol>
<symbol id="icon-logo" viewBox="0 0 32 32">
<title>logo</title>
<path fill="#f6cc90" style="fill: var(--color1, #f6cc90)" d="M3.119 30.727c0-0.020 3.718-3.176 12.486-3.176 8.516 0 12.486 3.156 12.486 3.176h-24.971z"></path>
<path fill="#f0c17f" style="fill: var(--color2, #f0c17f)" d="M15.605 27.551c-0.544 0-1.068 0.012-1.574 0.035 7.461 0.345 10.953 3.122 10.953 3.141h3.106c0-0.020-3.969-3.176-12.486-3.176z"></path>
<path fill="#c5e866" style="fill: var(--color3, #c5e866)" d="M21.274 5.575c-1.016 2.947-3.753 3.454-3.753 3.454s-1.814-2.172-0.825-5.042c1.042-3.023 3.78-3.53 3.78-3.53s1.827 2.134 0.798 5.119z"></path>
<path fill="#b2d94b" style="fill: var(--color4, #b2d94b)" d="M20.477 0.457c0 0-0.724 0.134-1.568 0.675 0.464 0.856 1.039 2.462 0.356 4.443-0.492 1.426-1.386 2.28-2.178 2.782 0.233 0.429 0.435 0.671 0.435 0.671s2.738-0.507 3.753-3.454c1.029-2.985-0.798-5.119-0.798-5.119z"></path>
<path fill="#9cc042" style="fill: var(--color5, #9cc042)" d="M18.545 19.429c-1.669 0.237-2.898-0.104-2.898-0.104s-1.063-4.264 2.258-7.595c3.498-3.509 7.659-2.354 7.659-2.354s0.913 3.48-1.506 6.714z"></path>
<path fill="#85aa18" style="fill: var(--color6, #85aa18)" d="M25.565 9.376c0 0-1.116-0.309-2.678-0.121 0.422 0.053 0.668 0.121 0.668 0.121s0.913 3.48-1.506 6.714l-5.514 3.338c-0.061 0.009-0.121 0.016-0.181 0.023 0.52 0.064 1.291 0.104 2.191-0.023l5.514-3.338c2.419-3.234 1.506-6.714 1.506-6.714z"></path>
<path fill="#c5e866" style="fill: var(--color3, #c5e866)" d="M11.668 17.193c2.962 2.335 2.457 5.681 2.457 5.681s-3.198 1.224-6.084-1.050c-3.039-2.395-2.534-5.742-2.534-5.742s3.16-1.254 6.161 1.111z"></path>
<path fill="#9cc042" style="fill: var(--color5, #9cc042)" d="M8.271 12.378c2.982 3.8 7.251 3.146 7.251 3.146s1.557-4.108-1.348-7.809c-3.060-3.899-7.329-3.245-7.329-3.245s-1.596 4.059 1.425 7.908z"></path>
<path fill="#c5e866" style="fill: var(--color3, #c5e866)" d="M23.287 21.152c-2.559 1.769-5.064 0.55-5.064 0.55s-0.178-2.828 2.315-4.551c2.626-1.815 5.13-0.596 5.13-0.596s0.211 2.805-2.381 4.597z"></path>
<path fill="#b2d94b" style="fill: var(--color4, #b2d94b)" d="M25.669 16.554c0 0-1.305-0.635-3.019-0.306 0.625 0.118 1.010 0.306 1.010 0.306s0.211 2.805-2.381 4.597c-0.694 0.48-1.384 0.739-2.021 0.864 0.966 0.183 2.488 0.203 4.030-0.864 2.593-1.792 2.381-4.597 2.381-4.597z"></path>
<path fill="#fff" style="fill: var(--color7, #fff)" d="M28.166 30.212c-0.903-0.637-1.933-1.111-2.961-1.506-1.855-0.714-4.941-1.56-9.215-1.609 0.069-0.591 0.234-1.44 0.619-2.386 0.383-0.939 0.9-1.786 1.549-2.539 0.305 0.125 1.089 0.4 2.114 0.4 0.949 0 2.105-0.236 3.275-1.045 2.776-1.919 2.587-4.882 2.577-5.007-0.012-0.162-0.11-0.305-0.256-0.376-0.042-0.020-0.437-0.207-1.061-0.334 0.509-0.799 0.883-1.666 1.113-2.587 0.143-0.572-0.743-0.793-0.886-0.222-0.243 0.971-0.664 1.876-1.251 2.693-0.989-0.023-2.231 0.201-3.504 1.081-0.948 0.656-1.54 1.454-1.91 2.216-0.802 0.102-1.491 0.065-1.957 0.007 0.928-1.252 3.347-4.286 6.071-5.871 0.509-0.296 0.050-1.086-0.459-0.79-2.65 1.542-4.957 4.287-6.069 5.744-0.064-1.422 0.182-3.93 2.276-6.030 1.364-1.369 2.988-2.162 4.826-2.357 0.962-0.102 1.736-0.005 2.122 0.064 0.041 0.238 0.090 0.623 0.099 1.107 0.010 0.584 0.924 0.577 0.914-0.016-0.017-0.948-0.176-1.565-0.182-1.59-0.041-0.157-0.163-0.281-0.32-0.324-0.046-0.013-1.141-0.31-2.686-0.153-1.422 0.144-3.517 0.717-5.419 2.625-0.159 0.159-0.307 0.321-0.447 0.483 0.256-0.79 0.537-1.644 0.823-2.503 0.827-0.252 2.871-1.117 3.748-3.663 1.102-3.196-0.802-5.469-0.883-5.565-0.106-0.124-0.27-0.182-0.43-0.152-0.122 0.023-3.012 0.593-4.128 3.831-0.927 2.688 0.394 4.789 0.798 5.343-0.266 0.8-0.526 1.593-0.767 2.333-0.185-1.236-0.667-2.686-1.762-4.081-1.664-2.12-3.676-2.937-5.071-3.248-1.516-0.339-2.638-0.174-2.686-0.166-0.161 0.025-0.296 0.133-0.356 0.284-0.013 0.033-0.316 0.813-0.419 2.010-0.051 0.587 0.86 0.665 0.91 0.079 0.058-0.674 0.187-1.2 0.274-1.494 0.391-0.023 1.171-0.028 2.114 0.188 1.802 0.412 3.321 1.392 4.515 2.912 1.131 1.441 1.691 3.112 1.666 4.968-0.008 0.605-0.081 1.132-0.161 1.537-1.807-3.365-4.366-5.951-4.478-6.064-0.416-0.417-1.063 0.228-0.647 0.645 0.027 0.027 2.665 2.694 4.412 6.024-0.408-0.009-0.938-0.054-1.532-0.186-1.789-0.396-3.284-1.347-4.445-2.826-0.808-1.030-1.344-2.173-1.591-3.398-0.117-0.578-1.012-0.397-0.896 0.181 0.276 1.366 0.871 2.638 1.768 3.781 1.625 2.070 3.619 2.862 5.007 3.163 0.691 0.15 1.404 0.221 2.111 0.198v7.692c-0.138-0.297-0.287-0.579-0.443-0.845 0.062-0.541 0.287-3.73-2.635-6.033-3.171-2.499-6.473-1.232-6.612-1.176-0.151 0.060-0.259 0.196-0.283 0.356-0.022 0.147-0.508 3.638 2.703 6.169 1.491 1.175 3.050 1.482 4.271 1.482 0.792 0 1.442-0.129 1.839-0.234 0.636 1.111 1.012 2.337 1.125 3.669-2.364 0.040-4.57 0.311-6.563 0.809-0.572 0.143-0.35 1.029 0.222 0.886 1.932-0.483 4.076-0.745 6.379-0.783v1.050c0 0.589 0.914 0.589 0.914 0v-1.053c5.388 0.054 8.831 1.373 10.543 2.26h-21.811c0.444-0.236 1.012-0.504 1.713-0.77 0.551-0.21 0.226-1.064-0.325-0.854-1.138 0.433-1.948 0.872-2.427 1.164-0.973 0.593-0.973 0.736-0.973 0.917 0 0.252 0.204 0.457 0.457 0.457h24.972c0.694 0 0.421-0.729 0.076-0.972zM20.798 17.526c1.927-1.332 3.758-0.893 4.416-0.663-0.026 0.706-0.281 2.595-2.187 3.912-1.728 1.195-3.41 0.908-4.176 0.674 0.9-0.843 1.996-1.542 3.281-2.093 0.541-0.232 0.182-1.072-0.36-0.84-1.16 0.497-2.115 1.088-2.905 1.722 0.238-0.848 0.765-1.908 1.93-2.713zM17.352 19.97c0.205 0 0.423-0.007 0.651-0.024-0.15 0.522-0.208 0.981-0.229 1.303-0.865 0.918-1.445 1.865-1.832 2.705v-4.1c0.32 0.055 0.809 0.116 1.41 0.116zM17.128 4.136c0.765-2.219 2.498-2.954 3.165-3.16 0.397 0.585 1.305 2.257 0.549 4.451-0.566 1.643-1.703 2.453-2.507 2.837 0.593-1.753 1.179-3.414 1.604-4.457 0.222-0.546-0.624-0.891-0.846-0.345-0.444 1.088-1.048 2.802-1.655 4.596-0.415-0.795-0.898-2.219-0.311-3.921zM8.323 21.465c-1.165-0.918-1.917-2.087-2.235-3.473-0.156-0.68-0.164-1.25-0.151-1.569 0.779-0.218 3.166-0.67 5.448 1.128 1.133 0.893 1.862 2.043 2.168 3.418 0.044 0.2 0.076 0.39 0.098 0.568-0.304-0.367-0.614-0.69-0.912-0.969-1.576-1.479-3.14-2.098-3.206-2.124-0.549-0.214-0.881 0.637-0.332 0.851 0.014 0.006 1.464 0.579 2.912 1.938 0.463 0.434 0.87 0.894 1.224 1.379-1.012 0.206-3.093 0.365-5.014-1.149z"></path>
<path fill="#1e1e1e" style="fill: var(--color8, #1e1e1e)" d="M27.596 29.111c-0.859-0.614-1.838-1.070-2.815-1.452-1.763-0.688-4.697-1.503-8.761-1.55 0.066-0.57 0.222-1.388 0.588-2.299 0.364-0.905 0.856-1.721 1.473-2.446 0.29 0.121 1.035 0.386 2.010 0.386 0.902 0 2.001-0.227 3.113-1.007 2.639-1.849 2.459-4.704 2.45-4.825-0.012-0.156-0.104-0.294-0.243-0.363-0.040-0.019-0.415-0.2-1.009-0.322 0.484-0.77 0.839-1.606 1.058-2.492 0.136-0.551-0.707-0.764-0.843-0.213-0.231 0.935-0.631 1.807-1.19 2.595-0.94-0.023-2.121 0.194-3.331 1.041-0.902 0.632-1.465 1.401-1.816 2.136-0.762 0.098-1.417 0.062-1.861 0.007 0.882-1.206 3.182-4.13 5.772-5.657 0.484-0.286 0.047-1.047-0.437-0.761-2.52 1.486-4.713 4.131-5.77 5.535-0.061-1.37 0.173-3.787 2.163-5.81 1.297-1.319 2.841-2.083 4.588-2.271 0.915-0.098 1.651-0.005 2.017 0.062 0.039 0.23 0.086 0.601 0.094 1.066 0.010 0.562 0.878 0.556 0.868-0.015-0.016-0.914-0.167-1.508-0.174-1.532-0.039-0.152-0.155-0.271-0.304-0.312-0.043-0.012-1.085-0.299-2.554-0.148-1.352 0.139-3.343 0.691-5.152 2.529-0.151 0.153-0.292 0.309-0.425 0.466 0.244-0.761 0.51-1.584 0.782-2.412 0.787-0.243 2.729-1.077 3.564-3.53 1.047-3.079-0.762-5.27-0.84-5.362-0.101-0.119-0.257-0.175-0.409-0.146-0.116 0.022-2.864 0.571-3.925 3.691-0.881 2.59 0.375 4.615 0.758 5.149-0.253 0.771-0.5 1.535-0.729 2.248-0.176-1.191-0.634-2.588-1.675-3.933-1.582-2.043-3.495-2.83-4.822-3.13-1.441-0.326-2.508-0.167-2.553-0.16-0.153 0.024-0.282 0.128-0.338 0.274-0.012 0.031-0.3 0.784-0.398 1.937-0.048 0.566 0.817 0.641 0.865 0.076 0.055-0.65 0.178-1.157 0.26-1.44 0.372-0.022 1.114-0.027 2.010 0.181 1.714 0.397 3.158 1.341 4.293 2.806 1.075 1.388 1.608 2.999 1.584 4.787-0.008 0.583-0.077 1.091-0.153 1.481-1.718-3.243-4.15-5.734-4.257-5.843-0.395-0.402-1.010 0.219-0.615 0.621 0.026 0.026 2.533 2.596 4.194 5.804-0.388-0.009-0.892-0.052-1.456-0.179-1.7-0.381-3.122-1.297-4.226-2.723-0.769-0.993-1.278-2.094-1.513-3.274-0.111-0.556-0.962-0.382-0.851 0.174 0.262 1.316 0.828 2.542 1.681 3.644 1.545 1.995 3.441 2.758 4.76 3.048 0.657 0.144 1.335 0.213 2.007 0.19v7.412c-0.131-0.286-0.273-0.558-0.422-0.814 0.059-0.521 0.273-3.594-2.505-5.813-3.015-2.408-6.154-1.187-6.286-1.133-0.144 0.058-0.246 0.189-0.269 0.343-0.021 0.142-0.483 3.506 2.569 5.944 1.418 1.133 2.899 1.428 4.060 1.428 0.753 0 1.371-0.124 1.748-0.226 0.605 1.070 0.962 2.252 1.069 3.536-2.248 0.039-4.344 0.3-6.24 0.78-0.543 0.138-0.333 0.992 0.211 0.854 1.837-0.465 3.875-0.718 6.064-0.754v1.012c0 0.568 0.869 0.568 0.869 0v-1.014c5.122 0.052 8.396 1.323 10.023 2.178h-20.736c0.422-0.228 0.962-0.485 1.629-0.742 0.524-0.202 0.215-1.025-0.309-0.823-1.082 0.417-1.852 0.84-2.308 1.122-0.925 0.571-0.925 0.709-0.925 0.884 0 0.243 0.194 0.44 0.434 0.44h23.741c0.66 0 0.4-0.703 0.072-0.937zM20.591 16.888c1.832-1.284 3.573-0.861 4.199-0.638-0.024 0.68-0.267 2.5-2.079 3.77-1.643 1.152-3.242 0.875-3.97 0.65 0.856-0.812 1.897-1.486 3.119-2.017 0.515-0.224 0.173-1.033-0.342-0.809-1.102 0.479-2.011 1.049-2.761 1.659 0.226-0.817 0.727-1.839 1.835-2.615zM17.315 19.243c0.195 0 0.402-0.007 0.619-0.023-0.143 0.503-0.198 0.945-0.218 1.256-0.823 0.885-1.374 1.798-1.742 2.606v-3.951c0.305 0.053 0.769 0.112 1.341 0.112zM17.102 3.986c0.727-2.138 2.375-2.846 3.009-3.045 0.377 0.563 1.241 2.175 0.522 4.289-0.538 1.583-1.619 2.364-2.384 2.733 0.564-1.689 1.121-3.29 1.525-4.294 0.212-0.526-0.593-0.858-0.804-0.332-0.422 1.048-0.996 2.7-1.573 4.428-0.395-0.766-0.854-2.138-0.296-3.778zM8.731 20.683c-1.108-0.885-1.822-2.011-2.125-3.347-0.148-0.655-0.156-1.205-0.144-1.511 0.74-0.21 3.010-0.645 5.179 1.087 1.077 0.86 1.77 1.968 2.061 3.294 0.042 0.193 0.072 0.376 0.094 0.547-0.289-0.353-0.584-0.665-0.867-0.934-1.498-1.425-2.986-2.021-3.048-2.046-0.522-0.206-0.837 0.614-0.315 0.82 0.014 0.005 1.392 0.558 2.769 1.868 0.44 0.419 0.827 0.862 1.163 1.329-0.962 0.199-2.941 0.351-4.767-1.107z"></path>
</symbol>
<symbol id="icon-logout" viewBox="0 0 32 32">
<title>logout</title>
<path d="M6.072 28.199c-0.613 0-1.145-0.225-1.595-0.676s-0.676-0.982-0.676-1.595v-19.857c0-0.616 0.225-1.149 0.676-1.601s0.982-0.678 1.595-0.678h8.807c0.321 0 0.59 0.111 0.808 0.334s0.327 0.495 0.327 0.816c0 0.322-0.109 0.59-0.327 0.806s-0.487 0.323-0.808 0.323h-8.807v19.857h8.807c0.321 0 0.59 0.11 0.808 0.329s0.327 0.49 0.327 0.812c0 0.322-0.109 0.591-0.327 0.806s-0.487 0.323-0.808 0.323h-8.807zM23.856 17.136h-10.768c-0.32 0-0.59-0.11-0.808-0.329s-0.327-0.49-0.327-0.812c0-0.322 0.109-0.591 0.327-0.806s0.488-0.323 0.808-0.323h10.701l-2.564-2.564c-0.227-0.228-0.334-0.495-0.323-0.8s0.13-0.571 0.357-0.795c0.226-0.229 0.496-0.342 0.81-0.34s0.585 0.117 0.815 0.344l4.529 4.529c0.221 0.229 0.332 0.494 0.332 0.797s-0.111 0.568-0.332 0.794l-4.496 4.496c-0.222 0.226-0.486 0.335-0.792 0.327s-0.577-0.126-0.812-0.352c-0.218-0.227-0.328-0.497-0.331-0.811s0.112-0.586 0.344-0.813l2.531-2.539z"></path>
</symbol>
<symbol id="icon-menu" viewBox="0 0 32 32">
<title>menu</title>
<path d="M4.936 24.295c-0.321 0-0.59-0.11-0.808-0.329s-0.327-0.493-0.327-0.82c0-0.322 0.109-0.591 0.327-0.807s0.488-0.323 0.808-0.323h22.127c0.321 0 0.591 0.11 0.812 0.329s0.331 0.49 0.331 0.812c0 0.328-0.11 0.599-0.331 0.814s-0.492 0.323-0.812 0.323h-22.127zM4.936 17.136c-0.321 0-0.59-0.11-0.808-0.329s-0.327-0.49-0.327-0.812c0-0.322 0.109-0.591 0.327-0.806s0.488-0.323 0.808-0.323h22.127c0.321 0 0.591 0.11 0.812 0.329s0.331 0.49 0.331 0.812c0 0.322-0.11 0.591-0.331 0.806s-0.492 0.323-0.812 0.323h-22.127zM4.936 9.984c-0.321 0-0.59-0.11-0.808-0.329s-0.327-0.493-0.327-0.82c0-0.322 0.109-0.591 0.327-0.806s0.488-0.323 0.808-0.323h22.127c0.321 0 0.591 0.11 0.812 0.329s0.331 0.49 0.331 0.812c0 0.328-0.11 0.599-0.331 0.815s-0.492 0.323-0.812 0.323h-22.127z"></path>
</symbol>
<symbol id="icon-travel_luggage_and_bags" viewBox="0 0 32 32">
<title>travel_luggage_and_bags</title>
<path d="M6.467 25.762v-15.69c0-0.632 0.221-1.17 0.663-1.614s0.978-0.665 1.608-0.665h3.341v-4.206c0-0.325 0.119-0.608 0.358-0.851s0.521-0.364 0.846-0.364h5.435c0.325 0 0.607 0.121 0.846 0.364s0.358 0.526 0.358 0.851v4.206h3.341c0.632 0 1.17 0.222 1.614 0.665s0.665 0.981 0.665 1.614v15.69c0 0.63-0.222 1.166-0.665 1.608s-0.981 0.663-1.614 0.663v0.548c0 0.297-0.099 0.546-0.298 0.747s-0.448 0.301-0.75 0.301c-0.305 0-0.566-0.093-0.784-0.279s-0.306-0.442-0.263-0.769v-0.548h-10.332v0.548c0 0.297-0.099 0.546-0.298 0.747s-0.449 0.301-0.75 0.301c-0.305 0-0.566-0.093-0.785-0.279s-0.306-0.442-0.263-0.769v-0.548c-0.63 0-1.166-0.221-1.608-0.663s-0.663-0.978-0.663-1.608zM14.167 7.793h3.667v-3.333h-3.667v3.333zM16 15.778c1.276 0 2.536-0.142 3.779-0.425s2.404-0.763 3.482-1.436v-3.844h-14.523v3.846c1.078 0.673 2.239 1.151 3.483 1.435s2.503 0.425 3.779 0.425zM14.952 18.429v-0.43c-1.112-0.067-2.191-0.246-3.236-0.538s-2.038-0.722-2.978-1.289v9.59h14.523v-9.598c-0.939 0.567-1.932 0.997-2.978 1.289s-2.124 0.474-3.236 0.546v0.43c0 0.297-0.1 0.546-0.299 0.747s-0.451 0.301-0.754 0.301c-0.303 0-0.552-0.099-0.748-0.298s-0.294-0.449-0.294-0.75z"></path>
</symbol>
<symbol id="icon-wand_stars" viewBox="0 0 32 32">
<title>wand_stars</title>
<path d="M21.848 16.962l-3.113 5.020c-0.178 0.294-0.429 0.408-0.754 0.341s-0.532-0.258-0.621-0.575l-1.092-4.41-10.080 10.031c-0.227 0.232-0.492 0.348-0.796 0.348s-0.569-0.116-0.796-0.348c-0.226-0.227-0.34-0.492-0.34-0.796s0.113-0.569 0.34-0.796l10.047-10.039-4.425-1.092c-0.316-0.089-0.507-0.296-0.571-0.62s0.048-0.579 0.337-0.762l5.020-3.146-0.408-5.869c-0.022-0.339 0.118-0.586 0.421-0.741s0.579-0.122 0.829 0.1l4.504 3.788 5.461-2.189c0.311-0.111 0.58-0.053 0.808 0.175s0.286 0.497 0.175 0.808l-2.222 5.461 3.788 4.512c0.222 0.25 0.261 0.526 0.117 0.829s-0.386 0.443-0.725 0.421l-5.902-0.449zM4.215 7.999c-0.122-0.116-0.183-0.253-0.183-0.411s0.061-0.297 0.183-0.418l1.629-1.629c0.116-0.116 0.253-0.175 0.41-0.175s0.297 0.058 0.419 0.175l1.588 1.596c0.122 0.122 0.182 0.26 0.182 0.414s-0.061 0.293-0.182 0.415l-1.629 1.629c-0.122 0.122-0.26 0.182-0.415 0.182s-0.293-0.061-0.414-0.182l-1.588-1.596zM18.649 18.049l2.052-3.304 3.896 0.292-2.536-2.987 1.468-3.604-3.604 1.46-2.995-2.536 0.3 3.896-3.312 2.077 3.796 0.943 0.935 3.763zM24.035 27.785l-1.629-1.621c-0.122-0.122-0.177-0.26-0.166-0.414s0.077-0.293 0.199-0.415l1.596-1.588c0.116-0.122 0.253-0.183 0.411-0.183s0.297 0.061 0.418 0.183l1.629 1.621c0.116 0.122 0.169 0.26 0.158 0.415s-0.075 0.293-0.191 0.414l-1.596 1.588c-0.122 0.122-0.26 0.183-0.414 0.183s-0.293-0.061-0.415-0.183z"></path>
</symbol>
<symbol id="icon-X" viewBox="0 0 32 32">
<title>X</title>
<path d="M22.901 5.657h3.68l-8.040 9.037 9.459 12.297h-7.406l-5.801-7.458-6.637 7.458h-3.682l8.6-9.666-9.074-11.668h7.594l5.243 6.817 6.064-6.817zM21.61 24.824h2.039l-13.163-17.115h-2.188l13.312 17.115z"></path>
</symbol>
<symbol id="icon-Youtube" viewBox="0 0 32 32">
<title>Youtube</title>
<path d="M28.791 9.604c-0.152-0.563-0.449-1.077-0.861-1.49s-0.925-0.711-1.489-0.864c-2.088-0.573-10.441-0.583-10.441-0.583s-8.352-0.009-10.441 0.539c-0.563 0.16-1.075 0.462-1.487 0.878s-0.711 0.929-0.867 1.493c-0.551 2.088-0.556 6.419-0.556 6.419s-0.005 4.352 0.541 6.419c0.307 1.143 1.207 2.045 2.351 2.353 2.109 0.573 10.44 0.583 10.44 0.583s8.353 0.009 10.441-0.537c0.563-0.153 1.077-0.45 1.49-0.862s0.712-0.925 0.866-1.488c0.552-2.087 0.556-6.416 0.556-6.416s0.027-4.353-0.543-6.441zM13.328 20.007l0.007-8 6.943 4.007-6.949 3.993z"></path>
</symbol>
</defs>
</svg>
